<?xml version="1.0" encoding="UTF-8"?>
<svg width="40px" height="58px" viewBox="0 0 40 58" version="1.1" xmlns="http://www.w3.org/2000/svg" xmlns:xlink="http://www.w3.org/1999/xlink">
    <!-- Generator: Sketch 63.1 (92452) - https://sketch.com -->
    <title>Group 58</title>
    <desc>Created with Sketch.</desc>
    <defs>
        <circle id="path-1" cx="16" cy="16" r="16"></circle>
        <filter x="-21.9%" y="-15.6%" width="143.8%" height="143.8%" filterUnits="objectBoundingBox" id="filter-2">
            <feOffset dx="0" dy="2" in="SourceAlpha" result="shadowOffsetOuter1"></feOffset>
            <feGaussianBlur stdDeviation="2" in="shadowOffsetOuter1" result="shadowBlurOuter1"></feGaussianBlur>
            <feColorMatrix values="0 0 0 0 0   0 0 0 0 0   0 0 0 0 0  0 0 0 0.4 0" type="matrix" in="shadowBlurOuter1"></feColorMatrix>
        </filter>
    </defs>
    <g id="LTL-Customer-Web" stroke="none" stroke-width="1" fill="none" fill-rule="evenodd">
        <g id="Group-58" transform="translate(4.000000, 2.000000)">
            <path d="M15,32 L19,32 L19,44 C19,45.1045695 18.1045695,46 17,46 C15.8954305,46 15,45.1045695 15,44 L15,32 L15,32 Z" id="Rectangle" fill="#4A4A4A"></path>
            <circle id="Oval" stroke="#FFFFFF" stroke-width="2" fill="#0E730F" cx="17" cy="46" r="9"></circle>
            <path d="M22.6536551,44.015625 L16.1972096,50.6484375 C15.9911529,50.859375 15.6935153,51 15.3958778,51 C15.0982402,51 14.8006026,50.8828125 14.5945459,50.6484375 L11.343428,47.3203125 C10.885524,46.8515625 10.885524,46.125 11.343428,45.65625 C11.8013319,45.1875 12.511083,45.1875 12.9689869,45.65625 L15.3958778,48.140625 L21.0509913,42.3515625 C21.5088953,41.8828125 22.2186464,41.8828125 22.6765503,42.3515625 C23.111559,42.8203125 23.111559,43.546875 22.6536551,44.015625 Z" id="Shape" fill="#FFFFFF" fill-rule="nonzero"></path>
            <g id="Oval">
                <use fill="black" fill-opacity="1" filter="url(#filter-2)" xlink:href="#path-1"></use>
                <use fill="#FFFFFF" fill-rule="evenodd" xlink:href="#path-1"></use>
            </g>
            <circle id="Oval-Copy" fill="#0E730F" cx="16" cy="16" r="14"></circle>
        </g>
    </g>
</svg>