<?xml version="1.0" encoding="UTF-8"?>
<svg width="16px" height="16px" viewBox="0 0 16 16" version="1.1" xmlns="http://www.w3.org/2000/svg" xmlns:xlink="http://www.w3.org/1999/xlink">
    <!-- Generator: Sketch 64 (93537) - https://sketch.com -->
    <title>icon/menu copy</title>
    <desc>Created with Sketch.</desc>
    <defs>
        <path d="M1.92877034,1.92877034 C4.50046414,-0.642923448 8.67946655,-0.642923448 11.2511603,1.92877034 C13.5817578,4.25936784 13.8228541,7.79544681 12.0548146,10.3671406 L15.671259,13.983585 C16.7160096,15.0283356 15.0283356,16.7160096 13.983585,15.671259 L10.3671406,12.0548146 C7.79544681,13.8228541 4.25936784,13.5817578 1.92877034,11.2511603 C-0.642923448,8.67946655 -0.642923448,4.50046414 1.92877034,1.92877034 Z M3.3753481,3.3753481 C1.60730862,5.14338758 1.60730862,8.0365431 3.3753481,9.80458258 C5.14338758,11.5726221 8.0365431,11.5726221 9.80458258,9.80458258 C11.5726221,8.0365431 11.5726221,5.14338758 9.80458258,3.3753481 C8.0365431,1.60730862 5.14338758,1.60730862 3.3753481,3.3753481 Z" id="path-1"></path>
    </defs>
    <g id="vittles" stroke="none" stroke-width="1" fill="none" fill-rule="evenodd">
        <g id="vittles-3a" transform="translate(-15.000000, -118.000000)">
            <g id="Group" transform="translate(0.000000, 104.000000)">
                <g id="Group-4">
                    <g id="icon/search" transform="translate(15.000000, 14.000000)">
                        <g id="color/primary/black-copy-3">
                            <mask id="mask-2" fill="white">
                                <use xlink:href="#path-1"></use>
                            </mask>
                            <use id="Mask" fill="#282828" xlink:href="#path-1"></use>
                            <g id="color/primary/green" mask="url(#mask-2)" fill="#40AE29">
                                <g transform="translate(-14.000000, -14.000000)" id="Rectangle">
                                    <rect x="0" y="0" width="44" height="44" rx="5"></rect>
                                </g>
                            </g>
                        </g>
                    </g>
                </g>
            </g>
        </g>
    </g>
</svg>