<svg xmlns="http://www.w3.org/2000/svg" width="14" height="14" viewBox="0 0 14 14">
    <path fill="#A1A1A1" fill-rule="nonzero" d="M8.081 2.055l3.847 3.853-6.64 6.652a.28.28 0 0 1-.081.061c0 .02-.02.02-.02.02-.02.02-.061.04-.082.04h-.02L.651 13.98c-.04.02-.1.02-.141.02a.487.487 0 0 1-.365-.142c-.121-.142-.182-.324-.121-.507L1.32 8.91v-.02c.02-.02.02-.061.04-.082.02 0 .02-.02.02-.02l.061-.081 6.64-6.652zm-6.033 7.97l-.79 2.738 2.734-.791-1.944-1.947zM9.458.676c.952-.953 2.693-.892 3.725.142 1.033 1.034 1.093 2.779.142 3.732l-.668.669L8.79 1.345z"/>
</svg>
