<?xml version="1.0" encoding="UTF-8"?>
<svg width="36px" height="36px" viewBox="0 0 36 36" version="1.1" xmlns="http://www.w3.org/2000/svg" xmlns:xlink="http://www.w3.org/1999/xlink">
    <title>@0.5xCombined Shape</title>
    <g id="LTL-Customer-Web" stroke="none" stroke-width="1" fill="none" fill-rule="evenodd">
        <path d="M18.1353383,-1.70530257e-13 C28.0150376,-1.70530257e-13 36,7.03216784 36,15.6871436 C36,24.4773535 27.8796992,31.5095213 18,31.5095213 L18,31.5095213 L16.7819549,31.5095213 L11.7744361,35.7017752 C10.962406,36.3779452 9.60902256,35.8370092 9.60902256,34.7551372 L9.60902256,34.7551372 L9.60902256,29.8867133 C3.78947368,27.3172674 0,21.7726735 0,15.6871436 C0,7.03216784 8.12030075,-1.70530257e-13 18.1353383,-1.70530257e-13 Z M18.1353383,2.43421195 C9.60902256,2.43421195 2.43609023,8.51974181 2.43609023,15.6871436 C2.43609023,21.0965035 5.81954887,25.8296934 11.3684211,27.8582034 C11.7744361,28.1286714 12.1804511,28.5343734 12.1804511,29.0753094 L12.1804511,29.0753094 L12.1804511,32.1856913 L15.5639098,29.2105433 C15.8345865,29.0753094 16.1052632,28.9400754 16.5112782,28.9400754 C16.9172932,29.0753094 17.4586466,29.0753094 18,29.0753094 C26.5263158,29.0753094 33.4285714,23.1250135 33.4285714,15.6871436 C33.4285714,8.38450781 26.6616541,2.43421195 18.1353383,2.43421195 Z M25.6804511,17.0394836 C27.2537594,17.0394836 27.3029253,19.3239345 25.8279488,19.4667127 L25.6804511,19.4736956 L10.2518797,19.4736956 C8.54579631,19.4736956 8.49409681,17.1847763 10.0967812,17.046054 L10.2518797,17.0394836 L25.6804511,17.0394836 Z M25.6804511,12.0358257 C27.2537594,12.0358257 27.3029253,14.3202766 25.8279488,14.4630548 L25.6804511,14.4700377 L10.2518797,14.4700377 C8.54579631,14.4700377 8.49409681,12.1811185 10.0967812,12.0423961 L10.2518797,12.0358257 L25.6804511,12.0358257 Z" id="Combined-Shape" fill="#CECECE"></path>
    </g>
</svg>